<?xml version="1.0" encoding="UTF-8" standalone="no"?>
<svg
   data-name="Layer 1"
   viewBox="0 0 56.72213 55.004002"
   version="1.1"
   id="svg6"
   sodipodi:docname="playlistsIcon.svg"
   inkscape:version="1.2.1 (9c6d41e410, 2022-07-14)"
   width="56.72213"
   height="55.004002"
   inkscape:export-filename="playlistsIcon.svg"
   inkscape:export-xdpi="96"
   inkscape:export-ydpi="96"
   xmlns:inkscape="http://www.inkscape.org/namespaces/inkscape"
   xmlns:sodipodi="http://sodipodi.sourceforge.net/DTD/sodipodi-0.dtd"
   xmlns="http://www.w3.org/2000/svg"
   xmlns:svg="http://www.w3.org/2000/svg">
  <defs
     id="defs10" />
  <sodipodi:namedview
     id="namedview8"
     pagecolor="#ffffff"
     bordercolor="#000000"
     borderopacity="0.25"
     inkscape:showpageshadow="2"
     inkscape:pageopacity="0.0"
     inkscape:pagecheckerboard="0"
     inkscape:deskcolor="#d1d1d1"
     showgrid="false"
     inkscape:zoom="5.8548441"
     inkscape:cx="18.275465"
     inkscape:cy="42.785085"
     inkscape:window-width="2560"
     inkscape:window-height="1017"
     inkscape:window-x="-8"
     inkscape:window-y="-8"
     inkscape:window-maximized="1"
     inkscape:current-layer="svg6" />
  <path
     d="M 56.69904,6.22203 46.178375,6.17106 c -3.752681,-0.02074 -3.616225,-0.353089 -3.62,1.504105 l 7.99e-4,24.65209 c -8.860663,-5.115699 -18.76978,4.796894 -13.661195,13.655182 5.108586,8.858284 18.651226,5.246224 18.661195,-4.985182 0,-0.34 0,-0.67 -0.05,-1 0.03269,-0.161299 0.04944,-0.325422 0.05,-0.49 l -0.0408,-27.066195 9.203755,-0.09644 c -0.0402,-2.400163 -0.0399,-3.329915 -0.0231,-6.092588 z M 37.3292,22.655655 H 2.499999 c -3.333332,0 -3.333332,-5 0,-5 H 37.3292 c 3.333332,0 3.333332,5 0,5 z"
     id="path2"
     sodipodi:nodetypes="ccccscccccccsssss" />
  <path
     d="m 37.499999,11 h -35 c -3.333332,0 -3.333332,-5 0,-5 h 35 c 3.333332,0 3.333332,5 0,5 z M 26.39808,34.261724 2.670797,34.090925 c -3.33324597,-0.02399 -3.333246,-5.023994 0,-5 l 23.727283,0.170799 c 3.333246,0.02399 3.333246,5.023994 0,5 z"
     id="path4"
     sodipodi:nodetypes="ssssssssss" />
</svg>
