<?xml version="1.0" encoding="UTF-8" standalone="no"?>
<!-- Generator: Adobe Illustrator 18.1.1, SVG Export Plug-In . SVG Version: 6.00 Build 0)  -->

<svg
   version="1.1"
   id="Capa_1"
   x="0px"
   y="0px"
   viewBox="0 0 389.99999 390"
   xml:space="preserve"
   sodipodi:docname="profileIcon.svg"
   inkscape:version="1.2.1 (9c6d41e410, 2022-07-14)"
   width="390"
   height="390"
   inkscape:export-filename="profileIcon.svg"
   inkscape:export-xdpi="96"
   inkscape:export-ydpi="96"
   xmlns:inkscape="http://www.inkscape.org/namespaces/inkscape"
   xmlns:sodipodi="http://sodipodi.sourceforge.net/DTD/sodipodi-0.dtd"
   xmlns="http://www.w3.org/2000/svg"
   xmlns:svg="http://www.w3.org/2000/svg"><defs
   id="defs43" /><sodipodi:namedview
   id="namedview41"
   pagecolor="#ffffff"
   bordercolor="#000000"
   borderopacity="0.25"
   inkscape:showpageshadow="2"
   inkscape:pageopacity="0.0"
   inkscape:pagecheckerboard="0"
   inkscape:deskcolor="#d1d1d1"
   showgrid="false"
   inkscape:zoom="1.6978416"
   inkscape:cx="60.076276"
   inkscape:cy="176.98942"
   inkscape:window-width="2560"
   inkscape:window-height="1017"
   inkscape:window-x="-8"
   inkscape:window-y="-8"
   inkscape:window-maximized="1"
   inkscape:current-layer="g6" />
<g
   id="g8"
   transform="translate(-5.1986321,-76.008887)">
	<g
   id="g6">
		<path
   style="fill:#010002"
   d="m 329.93244,322.27497 c -56.201,-18.357 -74.85114,-28.81635 -74.85114,-28.81635 l -1.881,1.793 c -16.69,15.709 -35.149,24.944 -51.965,24.944 h -1.587 c -16.815,0 -35.274,-9.235 -51.964,-24.944 l -1.882,-1.793 c 0,0 -21.59305,9.86937 -77.795049,28.22737 -68.82840531,39.82674 -59.8199493,115.3012 -59.8439493,116.2782 2.6130003,14.047 7.6698993,20.64195 8.9968993,21.18395 118.652979,6.46388 218.463059,11.17575 369.511119,-4.12288 1.327,-0.542 3.43898,-3.01407 6.05198,-17.06107 -0.024,-0.977 5.78356,-76.53944 -62.79086,-115.68922 z"
   id="path2"
   sodipodi:nodetypes="cccsscccccccc" />
		<path
   style="fill:#010002"
   d="m 285.51822,177.19938 c 0,0 6.37505,-29.89232 -0.15395,-49.32032 C 270.39588,98.195358 258.35335,86.141564 203.087,77.419904 c -60.39774,5.655525 -78.01662,26.969126 -86.50473,50.459156 -6.528,19.428 -3.09787,50.49829 -3.09787,50.49829 2.75714,12.83826 4.2867,35.56604 7.7909,47.07305 9.903,46.497 44.338,86.197 79.429,86.197 35.091,0 67.707,-39.7 77.61,-86.197 3.77458,-16.7869 5.82008,-33.04308 7.20392,-48.25102 z"
   id="path4"
   sodipodi:nodetypes="ccccccscc" />
	</g>
</g>
<g
   id="g10"
   transform="translate(-5.1986321,-76.008887)">
</g>
<g
   id="g12"
   transform="translate(-5.1986321,-76.008887)">
</g>
<g
   id="g14"
   transform="translate(-5.1986321,-76.008887)">
</g>
<g
   id="g16"
   transform="translate(-5.1986321,-76.008887)">
</g>
<g
   id="g18"
   transform="translate(-5.1986321,-76.008887)">
</g>
<g
   id="g20"
   transform="translate(-5.1986321,-76.008887)">
</g>
<g
   id="g22"
   transform="translate(-5.1986321,-76.008887)">
</g>
<g
   id="g24"
   transform="translate(-5.1986321,-76.008887)">
</g>
<g
   id="g26"
   transform="translate(-5.1986321,-76.008887)">
</g>
<g
   id="g28"
   transform="translate(-5.1986321,-76.008887)">
</g>
<g
   id="g30"
   transform="translate(-5.1986321,-76.008887)">
</g>
<g
   id="g32"
   transform="translate(-5.1986321,-76.008887)">
</g>
<g
   id="g34"
   transform="translate(-5.1986321,-76.008887)">
</g>
<g
   id="g36"
   transform="translate(-5.1986321,-76.008887)">
</g>
<g
   id="g38"
   transform="translate(-5.1986321,-76.008887)">
</g>
</svg>
