<?xml version="1.0" encoding="UTF-8" standalone="no"?>
<!-- Generator: Adobe Illustrator 18.1.1, SVG Export Plug-In . SVG Version: 6.00 Build 0)  -->

<svg
   version="1.1"
   id="Capa_1"
   x="0px"
   y="0px"
   viewBox="0 0 328.67306 319.01778"
   xml:space="preserve"
   sodipodi:docname="recentIcon.svg"
   inkscape:version="1.2.1 (9c6d41e410, 2022-07-14)"
   width="328.67307"
   height="319.01779"
   inkscape:export-filename="recentIcon.svg"
   inkscape:export-xdpi="96"
   inkscape:export-ydpi="96"
   xmlns:inkscape="http://www.inkscape.org/namespaces/inkscape"
   xmlns:sodipodi="http://sodipodi.sourceforge.net/DTD/sodipodi-0.dtd"
   xmlns="http://www.w3.org/2000/svg"
   xmlns:svg="http://www.w3.org/2000/svg"><defs
   id="defs44" /><sodipodi:namedview
   id="namedview42"
   pagecolor="#ffffff"
   bordercolor="#000000"
   borderopacity="0.25"
   inkscape:showpageshadow="2"
   inkscape:pageopacity="0.0"
   inkscape:pagecheckerboard="0"
   inkscape:deskcolor="#d1d1d1"
   showgrid="false"
   inkscape:zoom="1.1758157"
   inkscape:cx="-239.8335"
   inkscape:cy="210.49217"
   inkscape:window-width="2560"
   inkscape:window-height="1017"
   inkscape:window-x="-8"
   inkscape:window-y="-8"
   inkscape:window-maximized="1"
   inkscape:current-layer="g9" />
<g
   id="g9"
   transform="rotate(-147,162.30244,168.47866)">
	<g
   id="Layer_5_99_">
		<g
   id="g6">
			<path
   d="m 324.499,174.893 c 0,-2.311 0.928,-7.688 9.513,-7.688 h 14.679 c 6.349,0 1.873,-5.32 1.873,-5.32 L 310.541,98.746 c -0.135,-0.152 -2.166,-2.574 -4.137,0.348 l -39.543,62.541 c 0,0 -4.961,5.57 1.841,5.57 h 14.849 c 4.422,0 9.498,1.07 9.498,9.424 0,71.805 -58.676,130.223 -130.797,130.223 -72.127,0 -128.848628,-54.88006 -128.848628,-127.00706 0,-72.125 61.102006,-121.579064 121.535538,-124.783391 19.26491,-1.021471 38.24679,0.782499 60.50103,10.225095 21.05334,8.933047 32.13075,16.665958 41.75585,22.774895 9.21176,5.846598 22.46631,2.242058 26.95808,-5.158806 4.62807,-7.625428 6.06406,-16.430415 -0.51625,-22.458808 C 267.47085,45.633121 250.9424,39.019656 226.82919,28.662582 202.71597,18.305508 179.34093,16.594422 160.55793,17.432972 81.824365,20.947962 0,86.582 0,176.047 c 0,89.467 72.787,162.252 162.253,162.252 89.11,0 161.893,-72.496 162.24,-161.608 -0.002,-0.003 0.006,-1.349 0.006,-1.798 z"
   id="path2"
   sodipodi:nodetypes="sssccccsssssssssssssscs" />
			<path
   d="m 154.00015,179.49722 c 1.91354,-0.93329 4.24019,-0.13219 5.1735,1.78138 l 35.67048,56.70329 c 0.93331,1.91353 3.41186,2.97335 5.1735,1.78138 l 10.6059,-7.17624 c 2.11807,-1.44089 6.25578,-3.87037 5.32248,-5.78391 l -46.4999,-75.35578 c -0.93242,-1.91173 -3.26089,-2.71199 -5.17262,-1.77957 l -84.636839,26.90057 c -1.912628,0.93285 -2.715566,3.26041 -1.783153,5.17214 l 6.387064,13.09542 c 0.933295,1.91354 3.261754,2.7138 5.17439,1.78093 l 64.584758,-17.1205 z"
   id="path4"
   sodipodi:nodetypes="cccscccccssccc" />
		</g>
	</g>
</g>
<g
   id="g11"
   transform="translate(-19.332739,-23.646786)">
</g>
<g
   id="g13"
   transform="translate(-19.332739,-23.646786)">
</g>
<g
   id="g15"
   transform="translate(-19.332739,-23.646786)">
</g>
<g
   id="g17"
   transform="translate(-19.332739,-23.646786)">
</g>
<g
   id="g19"
   transform="translate(-19.332739,-23.646786)">
</g>
<g
   id="g21"
   transform="translate(-19.332739,-23.646786)">
</g>
<g
   id="g23"
   transform="translate(-19.332739,-23.646786)">
</g>
<g
   id="g25"
   transform="translate(-19.332739,-23.646786)">
</g>
<g
   id="g27"
   transform="translate(-19.332739,-23.646786)">
</g>
<g
   id="g29"
   transform="translate(-19.332739,-23.646786)">
</g>
<g
   id="g31"
   transform="translate(-19.332739,-23.646786)">
</g>
<g
   id="g33"
   transform="translate(-19.332739,-23.646786)">
</g>
<g
   id="g35"
   transform="translate(-19.332739,-23.646786)">
</g>
<g
   id="g37"
   transform="translate(-19.332739,-23.646786)">
</g>
<g
   id="g39"
   transform="translate(-19.332739,-23.646786)">
</g>
</svg>
