<?xml version="1.0" encoding="UTF-8" standalone="no"?>
<!-- License: CC Attribution. Made by game-icons.net: https://game-icons.net/ -->

<svg
   width="363.21008"
   height="367.2851"
   viewBox="0 0 363.21008 367.2851"
   version="1.1"
   id="svg4"
   sodipodi:docname="topArtistsIcon.svg"
   inkscape:export-filename="topArtistsIcon.svg"
   inkscape:export-xdpi="93.75"
   inkscape:export-ydpi="93.75"
   inkscape:version="1.2.1 (9c6d41e410, 2022-07-14)"
   xmlns:inkscape="http://www.inkscape.org/namespaces/inkscape"
   xmlns:sodipodi="http://sodipodi.sourceforge.net/DTD/sodipodi-0.dtd"
   xmlns="http://www.w3.org/2000/svg"
   xmlns:svg="http://www.w3.org/2000/svg">
  <defs
     id="defs8" />
  <sodipodi:namedview
     id="namedview6"
     pagecolor="#ffffff"
     bordercolor="#000000"
     borderopacity="0.25"
     inkscape:showpageshadow="2"
     inkscape:pageopacity="0.0"
     inkscape:pagecheckerboard="0"
     inkscape:deskcolor="#d1d1d1"
     showgrid="false"
     inkscape:zoom="1.4142136"
     inkscape:cx="-28.284271"
     inkscape:cy="266.93281"
     inkscape:window-width="2560"
     inkscape:window-height="1017"
     inkscape:window-x="-8"
     inkscape:window-y="-8"
     inkscape:window-maximized="1"
     inkscape:current-layer="svg4" />
  <path
     fill="#000000"
     d="m 273.21008,0 c -23.008,0 -48.00807,10.018357 -64.54307,26.023357 5.74,46.140003 23.18107,74.975643 45.60507,93.661643 22.25,18.543 52.078,26.88 87.75,28.345 13.432,-16.07 21.188,-37.085 21.188,-58 0,-23.467 -9.75,-47.063 -26.344,-63.656 C 320.27208,9.78 296.67608,0 273.21008,0 Z m -76.282,42.374 c -8.808,14.244 -13.75,30.986 -13.75,47.656 0,23.467 9.782,47.063 26.375,63.656 16.595,16.594 40.19,26.375 63.658,26.375 18.678,0 56.68249,-15.57541 68.8377,-32.03763 -31.55,-3.2 -61.55448,-12.35595 -83.80348,-30.89595 -23.277,-19.397 -41.40807,-51.11343 -48.94907,-92.06643 z m -27.78,67.72 -64.47,83.78 c 2.898,19.6 10.458,35.1 22.094,46.187 11.692,11.142 28.33236,16.26293 49.21236,17.77093 L 254.67808,194.407 c -21.2,-3.826 -41.14,-14.11 -56.437,-29.407 -14.927,-14.927 -25.057,-34.286 -29.095,-54.907 z m 15.124,61.904 c 0.01,-2e-5 0.02,-2e-5 0.03,0 0.17762,-0.006 0.35538,-0.006 0.533,0 6.91616,0.0442 10.52117,8.25068 5.875,13.374 l -80.27205,79.4372 c -2.90841,3.38348 -9.58323,5.84049 -12.928122,2.88779 -3.34489,-2.95271 -2.06836,-8.93835 0.92812,-12.24408 L 178.71008,174.779 c 1.40329,-1.63875 3.40899,-2.64124 5.562,-2.78 z M 91.866078,210.53 0,329.46544 c 3.487,13.327 7.326,20.944 12.5,26.03 5.03,4.948 13.62271,7.84164 24.79971,11.78964 L 175.96108,257.97706 c -17.067,-3.61 -36.54185,-11.003 -47.85285,-21.78 -11.346,-10.81 -18.70464,-26.06371 -23.25764,-42.36271 z"
     id="path2"
     sodipodi:nodetypes="scccscscscscccccccccscccccccscccccccccccc" />
</svg>
